Coordinates
nRows=128
nColumns=2
inDegrees=yes
endheader
time	ankle_angle_r	
3	 18.673013	
3.0625	 18.639188	
3.125	 18.646029	
3.1875	 18.644274	
3.25	 18.621186	
3.3125	 18.608505	
3.375	 18.603200	
3.4375	 18.623728	
3.5	 18.663299	
3.5625	 18.675173	
3.625	 18.683685	
3.6875	 18.706458	
3.75	 18.705044	
3.8125	 18.678734	
3.875	 18.679363	
3.9375	 18.719159	
4	 18.737285	
4.0625	 18.739491	
4.125	 18.757250	
4.1875	 18.746826	
4.25	 18.720128	
4.3125	 18.712553	
4.375	 18.718570	
4.4375	 18.736675	
4.5	 18.738225	
4.5625	 18.725864	
4.625	 18.726258	
4.6875	 18.726540	
4.75	 18.722468	
4.8125	 18.714033	
4.875	 18.730913	
4.9375	 18.784750	
5	 18.791825	
5.0625	 18.748906	
5.125	 18.733729	
5.1875	 18.718826	
5.25	 18.668537	
5.3125	 18.638993	
5.375	 18.661255	
5.4375	 18.670176	
5.5	 18.636512	
5.5625	 18.626616	
5.625	 18.638699	
5.6875	 18.639098	
5.75	 18.641231	
5.8125	 18.635156	
5.875	 18.646488	
5.9375	 18.682630	
6	 18.708213	
6.0625	 18.735552	
6.125	 18.740325	
6.1875	 18.721872	
6.25	 18.730411	
6.3125	 18.730076	
6.375	 18.710000	
6.4375	 18.713858	
6.5	 18.720186	
6.5625	 18.720306	
6.625	 18.726781	
6.6875	 18.711943	
6.75	 18.674864	
6.8125	 18.642690	
6.875	 18.622386	
6.9375	 18.620750	
7	 18.648653	
7.0625	 18.672321	
7.125	 18.655552	
7.1875	 18.634939	
7.25	 18.632090	
7.3125	 18.629090	
7.375	 18.636953	
7.4375	 18.666571	
7.5	 18.709438	
7.5625	 18.731114	
7.625	 18.708787	
7.6875	 18.685861	
7.75	 18.698054	
7.8125	 18.731340	
7.875	 18.743115	
7.9375	 18.712548	
8	 18.703019	
8.0625	 18.720663	
8.125	 18.690154	
8.1875	 18.637565	
8.25	 18.624784	
8.3125	 18.647349	
8.375	 18.662206	
8.4375	 18.655352	
8.5	 18.665177	
8.5625	 18.660388	
8.625	 18.617215	
8.6875	 18.605084	
8.75	 18.623971	
8.8125	 18.633566	
8.875	 18.646677	
8.9375	 18.693760	
9	 18.755199	
9.0625	 18.753248	
9.125	 18.725966	
9.1875	 18.742508	
9.25	 18.737488	
9.3125	 18.712209	
9.375	 18.717815	
9.4375	 18.726577	
9.5	 18.733887	
9.5625	 18.730868	
9.625	 18.693936	
9.6875	 18.640928	
9.75	 18.602846	
9.8125	 18.621681	
9.875	 18.673922	
9.9375	 18.680620	
10	 18.646356	
10.0625	 18.619755	
10.125	 18.617986	
10.1875	 18.624019	
10.25	 18.627035	
10.3125	 18.648795	
10.375	 18.666544	
10.4375	 18.650651	
10.5	 18.628618	
10.5625	 18.623688	
10.625	 18.630470	
10.6875	 18.629578	
10.75	 18.629344	
10.8125	 18.644708	
10.875	 18.649006	
10.9375	 18.630928	
